<?xml version="1.0" encoding="UTF-8"?>
<svg id="_레이어_2" data-name="레이어 2" xmlns="http://www.w3.org/2000/svg" viewBox="0 0 145.44 220.58">
  <defs>
    <style>
      .cls-1 {
        fill: #454445;
      }

      .cls-1, .cls-2 {
        stroke-width: 0px;
      }

      .cls-2 {
        fill: #f7e481;
      }
    </style>
  </defs>
  <g id="_레이어_1-2" data-name="레이어 1">
    <path class="cls-2" d="m42.21,140.67c-2.29-1.58-5.03-1.98-7.56-2.89-7.56-2.72-14.7-6.18-21.22-10.92-4.33-3.16-7.8-7.15-10.67-11.55-2.92-4.47-3.39-9.52-2-14.75,1.93-7.3,4.67-14.28,8.13-20.97,4.2-8.12,9.49-15.52,15.67-22.25,1.4-1.53,2.93-2.97,4.58-4.22,2.57-1.94,3.89-4.47,4.6-7.56,2.05-8.87,4.27-17.71,6.42-26.56.45-1.86,1.07-3.7,1.35-5.59.41-2.82,2.02-4.54,4.41-5.84,6.67-3.63,13.71-6.05,21.25-7.02,12.16-1.56,23.89.32,35.33,4.43,2.25.81,4.43,1.82,6.65,2.72.97.39,1.57,1.04,1.77,2.07.4,2.04.81,4.07,1.25,6.1,2.47,11.23,5,22.46,7.39,33.71.59,2.76,1.73,5.04,3.66,7.1,7.5,8.02,13.21,17.18,17.2,27.42,3.71,9.5,5.46,19.29,4.95,29.54-.31,6.37-3.18,11.29-7.57,15.5-4.69,4.5-10.43,7.32-16.42,9.63-7.34,2.83-14.99,4.5-22.76,5.6-1.27.18-2.56.21-3.58,1.15-1.34-.85-2.78-.41-4.18-.32-15.18.95-30.15-.33-44.92-3.97-1.21-.3-2.4-.9-3.72-.55Z"/>
    <path class="cls-1" d="m42.21,140.67c1.32-.36,2.5.25,3.72.55,14.77,3.64,29.75,4.92,44.92,3.97,1.41-.09,2.85-.52,4.18.32-7.01,23.21-14.02,46.41-21.04,69.62-.55,1.83-1.14,3.64-1.71,5.45-1.1-.25-1.24-1.06-1.51-1.79-9.35-25.43-18.7-50.85-28.05-76.28-.22-.6-.34-1.23-.51-1.84Z"/>
  </g>
</svg>