<?xml version="1.0" encoding="UTF-8"?>
<svg id="_레이어_2" data-name="레이어 2" xmlns="http://www.w3.org/2000/svg" viewBox="0 0 145.52 220.62">
  <defs>
    <style>
      .cls-1 {
        fill: #92bdd6;
      }

      .cls-1, .cls-2 {
        stroke-width: 0px;
      }

      .cls-2 {
        fill: #454445;
      }
    </style>
  </defs>
  <g id="_레이어_1-2" data-name="레이어 1">
    <path class="cls-1" d="m42.92,141.34c-2.32-1.53-5.07-1.88-7.62-2.74-7.61-2.56-14.83-5.87-21.44-10.49-4.4-3.07-7.94-6.99-10.91-11.33-3.01-4.41-3.58-9.44-2.31-14.7,1.78-7.34,4.37-14.38,7.7-21.13,4.04-8.2,9.17-15.71,15.21-22.57,1.37-1.55,2.87-3.03,4.5-4.31,2.53-1.99,3.8-4.55,4.45-7.66,1.87-8.91,3.9-17.79,5.87-26.68.42-1.87.99-3.72,1.23-5.62.35-2.82,1.93-4.58,4.29-5.93,6.59-3.77,13.59-6.33,21.1-7.45,12.13-1.81,23.89-.17,35.41,3.71,2.27.76,4.47,1.73,6.71,2.59.97.37,1.59,1.01,1.81,2.04.44,2.03.89,4.06,1.38,6.07,2.7,11.18,5.46,22.35,8.08,33.55.64,2.75,1.83,5,3.8,7.03,7.66,7.87,13.56,16.91,17.76,27.06,3.9,9.42,5.85,19.17,5.56,29.43-.18,6.38-2.95,11.35-7.25,15.65-4.59,4.6-10.28,7.53-16.22,9.96-7.28,2.98-14.89,4.8-22.64,6.06-1.26.21-2.56.27-3.55,1.22-1.35-.82-2.79-.35-4.19-.24-15.15,1.26-30.15.29-45-3.05-1.22-.27-2.42-.85-3.73-.47Z"/>
    <path class="cls-2" d="m42.92,141.34c1.31-.38,2.51.19,3.73.47,14.84,3.34,29.84,4.31,45,3.05,1.4-.12,2.84-.58,4.19.24-6.53,23.35-13.07,46.69-19.61,70.04-.51,1.84-1.07,3.66-1.6,5.48-1.11-.23-1.26-1.03-1.55-1.76-9.87-25.23-19.74-50.46-29.61-75.69-.23-.59-.37-1.22-.55-1.83Z"/>
  </g>
</svg>