<?xml version="1.0" encoding="UTF-8"?>
<svg id="_레이어_2" data-name="레이어 2" xmlns="http://www.w3.org/2000/svg" xmlns:xlink="http://www.w3.org/1999/xlink" viewBox="0 0 96.57 51.24">
  <defs>
    <style>
      .cls-1 {
        fill: #89c4de;
      }

      .cls-1, .cls-2, .cls-3, .cls-4, .cls-5, .cls-6 {
        stroke-width: 0px;
      }

      .cls-7 {
        clip-path: url(#clippath-2);
      }

      .cls-2 {
        fill: #fee569;
      }

      .cls-3 {
        fill: #f6f5f1;
      }

      .cls-4, .cls-8 {
        fill: none;
      }

      .cls-9 {
        opacity: .7;
      }

      .cls-10 {
        clip-path: url(#clippath-1);
      }

      .cls-8 {
        stroke: #fefff7;
        stroke-width: .2px;
      }

      .cls-8, .cls-11 {
        font-family: Arial-BoldMT, Arial;
        font-size: 18px;
        font-weight: 700;
        isolation: isolate;
      }

      .cls-12 {
        clip-path: url(#clippath);
      }

      .cls-5 {
        fill: #fe8388;
      }

      .cls-11 {
        fill: #3b3b3b;
      }

      .cls-6 {
        fill: #070707;
      }
    </style>
    <clipPath id="clippath">
      <rect class="cls-4" width="96.57" height="51.24"/>
    </clipPath>
    <clipPath id="clippath-1">
      <rect class="cls-4" width="96.57" height="51.24"/>
    </clipPath>
    <clipPath id="clippath-2">
      <rect class="cls-4" width="96.57" height="51.24"/>
    </clipPath>
  </defs>
  <g id="_레이어_1-2" data-name="레이어 1">
    <g class="cls-12">
      <g id="_그룹_38" data-name="그룹 38">
        <g id="_그룹_37" data-name="그룹 37">
          <g class="cls-10">
            <g id="_그룹_36" data-name="그룹 36">
              <g id="_그룹_35" data-name="그룹 35" class="cls-9">
                <g id="_그룹_34" data-name="그룹 34">
                  <g class="cls-7">
                    <g id="_그룹_33" data-name="그룹 33">
                      <path id="_패스_12" data-name="패스 12" class="cls-6" d="m47.81,5.65c.22-1.29.32-2.6.32-3.91.06-1.1.33-1.28,1.36-.97,2.65.8,5.14,2.08,7.84,2.75,7.23,1.78,14.5,3.29,21.87,4.36.75.11,1.5.24,2.25.36.82.14.95.62.61,1.29-.31.62-.61,1.24-.96,1.84-.31.51-.18.62.38.7,4.08.61,8.2,1.04,12.24,1.93,1.85.4,1.97.52,1.44,2.38-.24.84-.23,1.23.78,1.12.56-.06.7.24.6.8-1.99,10.7-3.98,21.4-5.95,32.1-.13.72-.29,1.03-1.19.77-5.11-1.36-10.29-2.43-15.52-3.2-4.6-.74-9.19-1.51-13.81-2.11-.78-.12-1.57-.2-2.37-.24-.77-.02-1.05-.38-1.09-1.1-.03-.41.36-.97-.04-1.19-.55-.33-1.2-.44-1.82-.31-3.56.99-7.24,1.43-10.82,2.35-5.37,1.38-10.78,2.63-16.07,4.34-.89.26-1.75.61-2.57,1.02-.65.35-1.11.34-1.33-.5-.19-.73-.49-1.42-.69-2.15-.14-.5-.32-.55-.73-.24-.58.44-1.17.86-1.78,1.25-.75.49-1.04.32-1.37-.51-3.3-8.39-7.66-16.07-14.76-21.9-1.17-.97-2.48-1.77-3.87-2.39-.9-.4-.99-.86-.26-1.54,1.07-.93,2.22-1.77,3.44-2.51,1.46-.97,2.92-1.93,4.4-2.86.37-.23.39-.39.17-.74-1.22-2.17-3.03-3.96-5.21-5.16-.27-.14-.57-.23-.49-.62.06-.32.32-.38.59-.42,1.63-.23,3.26-.52,4.9-.7,4.38-.48,8.63-1.62,12.95-2.44,7.73-1.46,15.08-4.15,22.53-6.54.47-.15.93-.33,1.38-.54.82-.38,1.08-.24,1.32.65.43,1.58.88,3.15,1.34,4.79m-27.65,40.81c.76-.47,1.46-.91,2.15-1.35,1.27-.8,1.24-.79,1.83.53.31.7.07,1.85.77,2.04.62.17,1.46-.46,2.2-.72,7.62-2.53,15.42-4.47,23.34-5.79,2.22-.4,2.22-.38,1.91-2.7-.19-1.4-.19-1.41,1.27-1.4.49,0,.99.08,1.48.09.52,0,.58.24.48.69-.2.7-.32,1.42-.34,2.14,0,.3-.02.54.43.61,1.4.23,2.79.54,4.19.78,5.24.92,10.49,1.79,15.72,2.76,3.77.7,7.52,1.51,11.26,2.31.73.16.96.03,1.06-.74.16-1.24.51-2.45.75-3.68,1.72-8.66,3.43-17.32,5.18-25.97.14-.68-.18-.75-.64-.83-2.34-.41-4.68-.82-7.03-1.21-2.77-.46-5.54-.89-8.31-1.36-.96-.16-1.11-.49-.67-1.36.28-.56.6-1.1.91-1.64.2-.34.31-.6-.25-.63-.23-.03-.46-.08-.68-.13-9.15-1.57-18.34-2.95-26.97-6.6-.68-.29-.85-.2-.9.59-.2,3.53-.07,7.07-.45,10.59-.03.27.08.69-.32.7-.35.02-.27-.41-.33-.63-.91-3.64-2.08-7.2-3.24-10.76-.24-.73-.4-.88-1.17-.64-3.56,1.12-7.06,2.42-10.62,3.52-6.54,1.87-13.17,3.42-19.87,4.62-2.51.5-5.07.64-7.81,1.06,1.78,1.37,3.26,3.07,4.38,5.02.51.87.41,1.23-.42,1.78-2.34,1.55-4.67,3.11-6.99,4.69-.26.17-.97.36-.13.84,6.1,3.46,10.29,8.72,13.63,14.7,1.62,2.58,3.02,5.28,4.2,8.09"/>
                    </g>
                  </g>
                </g>
              </g>
              <path id="_패스_13" data-name="패스 13" class="cls-3" d="m20.16,46.46c-1.18-2.81-2.58-5.51-4.2-8.09-3.34-5.99-7.53-11.25-13.63-14.7-.84-.47-.12-.66.13-.84,2.32-1.58,4.65-3.15,6.99-4.69.83-.55.93-.91.42-1.78-1.12-1.94-2.6-3.65-4.38-5.02,2.74-.42,5.3-.56,7.81-1.06,6.7-1.2,13.33-2.74,19.88-4.62,3.56-1.1,7.06-2.4,10.62-3.52.77-.24.94-.09,1.17.64,1.16,3.56,2.33,7.12,3.24,10.76.06.22-.02.65.33.63.4-.02.29-.43.32-.7.38-3.52.24-7.06.45-10.59.05-.79.21-.88.9-.59,8.63,3.66,17.82,5.04,26.97,6.6.22.06.45.1.68.13.57.03.45.29.25.63-.32.54-.63,1.08-.91,1.64-.43.87-.29,1.2.67,1.36,2.77.47,5.54.9,8.31,1.36,2.35.39,4.69.81,7.03,1.21.46.08.77.15.64.83-1.75,8.65-3.46,17.31-5.18,25.97-.25,1.23-.59,2.44-.75,3.68-.1.77-.33.89-1.06.74-3.75-.8-7.5-1.61-11.26-2.31-5.23-.97-10.48-1.83-15.72-2.76-1.4-.25-2.79-.56-4.19-.78-.45-.07-.42-.32-.43-.61.02-.73.14-1.44.34-2.14.1-.45.04-.68-.48-.69-.49,0-.99-.08-1.48-.09-1.47-.02-1.47,0-1.27,1.4.32,2.32.31,2.3-1.91,2.7-7.92,1.32-15.72,3.26-23.34,5.79-.75.26-1.58.89-2.2.72-.7-.19-.46-1.35-.77-2.04-.59-1.32-.56-1.33-1.83-.53-.69.44-1.39.88-2.15,1.35m31.16-7.35c-.51-2.52-.87-5.07-1.1-7.63-.36-2.72-.91-5.41-1.24-8.12-.19-1.95-.49-3.88-.9-5.8-.42-1.77-.72-3.58-1.26-5.3-.73-2.34-1.39-4.71-2.28-7-.62-1.6-1.07-1.97-2.47-1.52-.23.12-.46.23-.7.33-2.41.47-4.65,1.49-7,2.17-1.95.56-3.88,1.24-5.83,1.77-1.78.49-3.57.97-5.38,1.37-2.43.55-4.86,1.18-7.28,1.78-1.9.53-3.85.83-5.82.9-.3.03-.58.1-.85.23-.38.15-.6.28-.23.77,1.28,1.67,2.5,3.4,3.73,5.11,1.17,1.63,2.24,3.33,3.22,5.09,1.05,1.93,1.9,3.98,2.91,5.92,1.04,2.01,1.97,4.08,2.79,6.19.96,2.44,1.79,4.93,2.77,7.36.41,1.02.71,2.08,1.18,3.07.13.28.11.9.76.62,1.46-.62,2.94-1.12,4.46-1.6,1.94-.61,3.88-1.25,5.84-1.77,2.64-.72,5.32-1.3,8.02-1.74.98-.08,1.95-.22,2.91-.44.88-.32,1.8-.54,2.73-.63.83-.03,1.18-.29,1.01-1.14m11.05-27.94c-.49-.13-.65.31-.75.97-.26,1.72-.58,3.44-.9,5.15-.47,2.49-.99,4.96-1.46,7.45s-.88,4.98-1.33,7.47c-.41,2.23-.84,4.46-1.26,6.69-.12.63-.03,1.08.78,1.17,1.01.12,2.01.36,3.01.53,1.88.33,3.76.65,5.65.97,1.95.33,3.89.68,5.84,1.01,2.86.48,5.72.96,8.57,1.44,1.82.31,3.63.63,5.45.93.6.1.96-.05,1.1-.76.96-4.97,1.97-9.92,2.97-14.89.83-4.12,1.67-8.24,2.52-12.35.09-.43,0-.69-.49-.77-1.1-.17-2.2-.39-3.31-.57-2.86-.47-5.72-.92-8.58-1.38-2.02-.33-4.03-.66-6.04-1-2.04-.34-4.09-.69-6.13-1.05-1.78-.31-3.56-.64-5.64-1.02m14.86-1.22c-.38-.26-.86-.36-1.31-.27-1.42.02-2.84-.17-4.21-.56-2.14-.53-4.3-.98-6.46-1.41-4.75-.92-9.44-2.15-14.03-3.69-.78-.27-.94-.06-.94.64,0,1.09.04,2.18-.02,3.27-.15,2.56-.34,5.12-.54,7.68-.33,4.13.78,8.1,1.34,12.13.28,1.99.74,3.95,1,5.94.36,2.76.31,2.76,3.09,2.55.13,0,.26-.03.39-.04.49-.02.87-.41.87-.9.15-1.61.56-3.17.85-4.76.67-3.72,1.31-7.45,2.08-11.15.55-2.67,1.1-5.34,1.52-8.04.2-1.27.52-1.49,1.71-1.1.25.08.5.15.76.21,3.8.84,7.66,1.31,11.52,1.83.65.09,1.01.02,1.31-.6.32-.6.68-1.17,1.07-1.72M10.64,18.26c-.18.07-.35.15-.51.25-1.91,1.35-3.82,2.69-5.71,4.06-.93.67-.92.71.06,1.43,2.41,1.74,4.58,3.78,6.47,6.07,3.58,4.39,6.19,9.37,8.88,14.31.11.2.12.49.36.56,1.03.32,1.31-.81,2.05-1.1.32-.13.97-.33.75-.98-.29-.84-.6-1.67-.92-2.49-1.55-3.98-3.3-7.88-5.01-11.79-1.57-3.29-3.41-6.45-5.5-9.43-.22-.34-.39-.78-.91-.88"/>
              <path id="_패스_14" data-name="패스 14" class="cls-2" d="m51.32,39.11c.16.85-.18,1.11-1.01,1.14-.93.09-1.85.31-2.73.63-.96.21-1.93.36-2.91.44-2.7.44-5.38,1.02-8.02,1.74-1.96.52-3.9,1.16-5.84,1.77-1.51.48-3,.98-4.46,1.6-.65.28-.63-.35-.76-.62-.47-.99-.77-2.05-1.18-3.07-.99-2.43-1.81-4.92-2.77-7.36-.82-2.11-1.75-4.18-2.79-6.19-1.01-1.94-1.85-3.99-2.92-5.91-.98-1.76-2.05-3.46-3.22-5.09-1.23-1.72-2.45-3.44-3.73-5.11-.38-.49-.15-.62.23-.77.27-.13.55-.21.85-.23,1.97-.07,3.93-.37,5.83-.9,2.42-.6,4.85-1.23,7.28-1.78,1.81-.41,3.6-.89,5.38-1.37,1.95-.54,3.89-1.21,5.83-1.77,2.35-.68,4.59-1.7,7-2.17.24-.1.47-.21.7-.33,1.4-.45,1.84-.08,2.46,1.52.89,2.3,1.55,4.66,2.28,7,.54,1.72.84,3.53,1.26,5.3.41,1.92.71,3.85.9,5.8.33,2.72.88,5.4,1.24,8.12.23,2.56.59,5.11,1.1,7.63"/>
              <path id="_패스_15" data-name="패스 15" class="cls-5" d="m62.37,11.18c2.08.38,3.85.71,5.64,1.02,2.04.36,4.09.71,6.13,1.05,2.01.34,4.03.67,6.04,1,2.86.46,5.72.92,8.58,1.38,1.1.18,2.2.4,3.31.57.49.08.58.33.49.77-.85,4.12-1.68,8.24-2.52,12.36-1,4.96-2,9.92-2.97,14.89-.14.71-.5.86-1.1.76-1.82-.31-3.63-.63-5.45-.93-2.86-.48-5.72-.96-8.57-1.44-1.95-.33-3.89-.67-5.84-1-1.88-.32-3.77-.64-5.65-.97-1-.18-2-.42-3.01-.53-.8-.09-.9-.54-.78-1.17.42-2.23.85-4.46,1.26-6.69.45-2.49.87-4.99,1.33-7.47s.99-4.96,1.46-7.45c.33-1.71.64-3.43.9-5.15.1-.66.26-1.1.75-.97"/>
              <path id="_패스_16" data-name="패스 16" class="cls-1" d="m77.22,9.96c-.39.55-.75,1.12-1.08,1.72-.29.62-.65.69-1.31.6-3.85-.52-7.71-.99-11.52-1.83-.26-.06-.51-.13-.76-.21-1.19-.39-1.51-.17-1.71,1.1-.42,2.69-.97,5.36-1.52,8.04-.76,3.7-1.4,7.43-2.08,11.15-.29,1.58-.7,3.15-.85,4.76,0,.49-.39.88-.87.9-.13.01-.26.03-.39.04-2.78.21-2.73.2-3.09-2.55-.26-1.99-.72-3.95-1-5.94-.56-4.03-1.67-8-1.34-12.13.2-2.56.39-5.12.54-7.68.06-1.09.03-2.18.02-3.27,0-.7.16-.91.94-.64,4.59,1.54,9.28,2.77,14.03,3.69,2.16.43,4.32.88,6.46,1.41,1.37.4,2.79.59,4.21.56.46-.08.93.01,1.31.27"/>
              <path id="_패스_17" data-name="패스 17" class="cls-5" d="m10.64,18.26c.52.1.69.54.91.88,2.09,2.99,3.93,6.14,5.5,9.43,1.71,3.91,3.47,7.81,5.01,11.79.32.83.63,1.65.92,2.49.22.65-.43.85-.74.98-.73.3-1.02,1.42-2.04,1.1-.24-.08-.25-.36-.36-.56-2.69-4.94-5.3-9.93-8.88-14.31-1.89-2.29-4.07-4.33-6.48-6.07-.97-.72-.99-.76-.06-1.43,1.89-1.37,3.8-2.71,5.71-4.06.16-.1.33-.18.51-.25"/>
            </g>
          </g>
        </g>
      </g>
    </g>
    <text class="cls-11" transform="translate(14.5 33.12)"><tspan x="0" y="0">SeSAC-it</tspan></text>
    <text class="cls-8" transform="translate(14.5 33.12)"><tspan x="0" y="0">SeSAC-it</tspan></text>
  </g>
</svg>